# xmcd CD database file
#
# Track frame offsets:
#	150
#	27690
#	53092
#	98882
#	111460
#	145645
#	185897
#
# Disc length: 2905 seconds
#
# Revision: 0
# Processed by: cddbd v1.5.1PL2 Copyright (c) Steve Scherf et al.
# Submitted via: CDex 1.51
#
DISCID=660b5707
DTITLE=Ron Carter - Uptown Conversation
DYEAR=1970
DGENRE=Jazz
TTITLE0=Uptown Conversation
TTITLE1=Ten Strings
TTITLE2=Half A Row
TTITLE3=R.J.
TTITLE4=Little Waltz
TTITLE5=Einbahnstrasse
TTITLE6=Doom
EXTD=YEAR: 1970
EXTT0=
EXTT1=
EXTT2=
EXTT3=
EXTT4=
EXTT5=
EXTT6=
PLAYORDER=
